<?xml version="1.0" encoding="UTF-8" standalone="no" ?>
<!DOCTYPE svg PUBLIC "-//W3C//DTD SVG 1.1//EN" "http://www.w3.org/Graphics/SVG/1.1/DTD/svg11.dtd">
<svg xmlns="http://www.w3.org/2000/svg" xmlns:xlink="http://www.w3.org/1999/xlink" version="1.1" width="255.04671874999997" height="88.28199999999998" xml:space="preserve">
<desc>Created with Fabric.js 1.6.0-rc.1</desc>
<defs></defs>
<g style="stroke: none; stroke-width: 1; stroke-dasharray: none; stroke-linecap: butt; stroke-linejoin: miter; stroke-miterlimit: 10; fill: none; fill-rule: nonzero; opacity: 1;" transform="translate(10 10) scale(0.14 0.14)" >
  <path d="M 224 154.666 c 0 -0.122 0 -0.246 -0.002 -0.369 C 223.998 154.419 223.998 154.545 224 154.666 L 224 154.666 z M 117.331 261.333 c -58.907 0 -106.664 -47.756 -106.664 -106.667 S 58.424 48 117.331 48 C 176.12 48 223.8 95.557 223.998 154.297 C 224.197 95.557 271.878 48 330.665 48 c 58.91 0 106.667 47.756 106.667 106.667 c 0 58.911 -47.757 106.667 -106.667 106.667 c -58.787 0 -106.468 -47.557 -106.667 -106.296 C 223.8 213.776 176.121 261.333 117.331 261.333 L 117.331 261.333 z M 309.331 208 c 0 11.782 9.554 21.335 21.335 21.335 c 11.781 0 21.332 -9.553 21.332 -21.335 c 0 -11.781 -9.551 -21.334 -21.332 -21.334 C 318.885 186.665 309.331 196.219 309.331 208 L 309.331 208 z M 170.665 176.002 c 11.783 0 21.334 -9.551 21.334 -21.335 c 0 -11.781 -9.551 -21.332 -21.334 -21.332 c -11.781 0 -21.334 9.551 -21.334 21.332 C 149.331 166.451 158.883 176.002 170.665 176.002 L 170.665 176.002 z M 117.331 186.665 c -11.781 0 -21.332 9.554 -21.332 21.334 c 0 11.782 9.551 21.335 21.332 21.335 c 11.783 0 21.335 -9.553 21.335 -21.335 C 138.666 196.219 129.115 186.665 117.331 186.665 L 117.331 186.665 z M 127.998 154.666 c 0 -5.89 -4.775 -10.664 -10.666 -10.664 c -5.89 0 -10.664 4.775 -10.664 10.664 c 0 5.892 4.776 10.666 10.664 10.666 C 123.224 165.333 127.998 160.558 127.998 154.666 L 127.998 154.666 z M 277.332 176.002 c 11.781 0 21.334 -9.551 21.334 -21.335 c 0 -11.781 -9.553 -21.332 -21.334 -21.332 c -11.781 0 -21.334 9.551 -21.334 21.332 C 255.998 166.451 265.551 176.002 277.332 176.002 L 277.332 176.002 z M 330.666 165.333 c 5.888 0 10.666 -4.774 10.666 -10.666 c 0 -5.89 -4.778 -10.664 -10.666 -10.664 c -5.892 0 -10.666 4.775 -10.666 10.664 C 319.999 160.558 324.773 165.333 330.666 165.333 L 330.666 165.333 z M 117.331 122.668 c 11.783 0 21.335 -9.551 21.335 -21.335 c 0 -11.781 -9.552 -21.332 -21.335 -21.332 c -11.781 0 -21.332 9.551 -21.332 21.332 C 95.999 113.117 105.55 122.668 117.331 122.668 L 117.331 122.668 z M 330.666 122.668 c 11.781 0 21.332 -9.551 21.332 -21.335 c 0 -11.781 -9.551 -21.332 -21.332 -21.332 c -11.781 0 -21.335 9.551 -21.335 21.332 C 309.331 113.117 318.885 122.668 330.666 122.668 L 330.666 122.668 z M 362.664 154.666 c 0 11.784 9.551 21.335 21.335 21.335 c 11.781 0 21.332 -9.551 21.332 -21.335 c 0 -11.781 -9.551 -21.332 -21.332 -21.332 C 372.215 133.335 362.664 142.885 362.664 154.666 L 362.664 154.666 z M 85.335 154.666 c 0 -11.781 -9.553 -21.332 -21.335 -21.332 c -11.781 0 -21.334 9.551 -21.334 21.332 c 0 11.784 9.553 21.335 21.334 21.335 C 75.782 176.002 85.335 166.451 85.335 154.666 z" style="stroke: none; stroke-width: 1; stroke-dasharray: none; stroke-linecap: butt; stroke-linejoin: miter; stroke-miterlimit: 10; fill: #f00505; fill-rule: nonzero; opacity: 1;" transform=" matrix(1 0 0 1 0 0) " stroke-linecap="round" />
  <path d="M 330.666 261.333 H 117.331 H 69.998 v 202.665 h 341.331 v -64 v -74.665 v -64 H 330.666 L 330.666 261.333 z M 112.663 314.667 h 111.335 v 95.998 H 112.663 V 314.667 z" style="stroke: none; stroke-width: 1; stroke-dasharray: none; stroke-linecap: butt; stroke-linejoin: miter; stroke-miterlimit: 10; fill: #ede20e; fill-rule: nonzero; opacity: 1;" transform=" matrix(1 0 0 1 0 0) " stroke-linecap="round" />
  <rect x="112.66" y="314.67" rx="0" ry="0" width="111.34" height="96" style="stroke: none; stroke-width: 1; stroke-dasharray: none; stroke-linecap: butt; stroke-linejoin: miter; stroke-miterlimit: 10; fill: #0d0c0c; fill-rule: nonzero; opacity: 1;" transform=" matrix(1 0 0 1 0 0) "/>
  <polygon points="458.67,420.89 458.67,304.44 411.33,322.76 411.33,402.57 " style="stroke: none; stroke-width: 1; stroke-dasharray: none; stroke-linecap: butt; stroke-linejoin: miter; stroke-miterlimit: 10; fill: #f00505; fill-rule: nonzero; opacity: 1;" transform="  matrix(1 0 0 1 0 0) "/>
  <polygon points="458.67,304.44 458.67,420.89 458.67,431.56 501.33,431.56 501.33,293.78 458.67,293.78 " style="stroke: none; stroke-width: 1; stroke-dasharray: none; stroke-linecap: butt; stroke-linejoin: miter; stroke-miterlimit: 10; fill: #0d0c0c; fill-rule: nonzero; opacity: 1;" transform="  matrix(1 0 0 1 0 0) "/>
  <path d="M 501.332 283.11 h -42.668 c -5.892 0 -10.668 4.776 -10.668 10.668 v 3.358 l -26 10.061 v -45.863 c 0 -5.892 -4.776 -10.668 -10.668 -10.668 h -13.277 C 428.239 229.414 448 194.308 448 154.669 c 0 -64.7 -52.637 -117.336 -117.334 -117.336 c -47.271 0 -88.1 28.104 -106.666 68.478 c -18.566 -40.374 -59.395 -68.478 -106.666 -68.478 C 52.636 37.332 0 89.969 0 154.669 c 0 43.968 24.315 82.359 60.2 102.449 c -0.557 1.294 -0.868 2.718 -0.868 4.216 V 464 c 0 5.892 4.777 10.668 10.668 10.668 h 341.33 c 5.892 0 10.668 -4.776 10.668 -10.668 v -45.863 l 26 10.063 v 3.357 c 0 5.892 4.776 10.668 10.668 10.668 h 42.668 c 5.892 0 10.668 -4.776 10.668 -10.668 v -137.78 C 512 287.886 507.223 283.11 501.332 283.11 z M 330.666 58.667 c 52.934 0 95.999 43.067 95.999 96.001 c 0 52.933 -43.065 95.997 -95.999 95.997 c -52.908 0 -95.953 -43.02 -95.998 -95.916 c 0 -0.027 0.001 -0.054 0.001 -0.082 s -0.001 -0.054 -0.001 -0.082 C 234.711 101.689 277.758 58.667 330.666 58.667 z M 263.279 250.666 H 184.72 c 16.916 -11.909 30.555 -28.169 39.279 -47.14 C 232.724 222.497 246.362 238.756 263.279 250.666 z M 21.335 154.669 c 0 -52.935 43.064 -96.001 95.998 -96.001 c 52.908 0 95.953 43.022 95.998 95.919 c 0 0.027 -0.001 0.054 -0.001 0.082 c 0 0.028 0.001 0.054 0.001 0.082 c -0.045 52.895 -43.09 95.916 -95.998 95.916 C 64.399 250.666 21.335 207.601 21.335 154.669 z M 400.662 453.333 H 80.666 V 272.001 h 319.996 v 50.76 v 79.809 V 453.333 z M 421.997 395.261 v -65.189 l 26 -10.059 v 85.311 L 421.997 395.261 z M 490.665 420.89 h -21.331 V 304.445 l 0 0 h 21.331 V 420.89 z" style="stroke: none; stroke-width: 1; stroke-dasharray: none; stroke-linecap: butt; stroke-linejoin: miter; stroke-miterlimit: 10; fill: #1b1b24; fill-rule: nonzero; opacity: 1;" transform=" matrix(1 0 0 1 0 0) " stroke-linecap="round" />
  <path d="M 106.667 154.669 c 0 5.875 4.792 10.666 10.666 10.666 c 5.875 0 10.666 -4.792 10.666 -10.666 s -4.792 -10.666 -10.666 -10.666 C 111.459 144.002 106.667 148.794 106.667 154.669 z" style="stroke: none; stroke-width: 1; stroke-dasharray: none; stroke-linecap: butt; stroke-linejoin: miter; stroke-miterlimit: 10; fill: #1b1b24; fill-rule: nonzero; opacity: 1;" transform=" matrix(1 0 0 1 0 0) " stroke-linecap="round" />
  <path d="M 117.331 133.338 c 17.646 0 32.003 -14.356 32.003 -32.003 s -14.356 -32.003 -32.003 -32.003 c -17.644 0 -31.999 14.356 -31.999 32.003 S 99.687 133.338 117.331 133.338 z M 117.331 90.669 c 5.883 0 10.668 4.785 10.668 10.668 c 0 5.882 -4.784 10.668 -10.668 10.668 c -5.881 0 -10.664 -4.785 -10.664 -10.668 C 106.667 95.453 111.451 90.669 117.331 90.669 z" style="stroke: none; stroke-width: 1; stroke-dasharray: none; stroke-linecap: butt; stroke-linejoin: miter; stroke-miterlimit: 10; fill: #1b1b24; fill-rule: nonzero; opacity: 1;" transform=" matrix(1 0 0 1 0 0) " stroke-linecap="round" />
  <path d="M 96.002 154.669 c 0 -17.646 -14.356 -32.002 -32.003 -32.002 s -32.002 14.356 -32.002 32.002 c 0 17.646 14.355 32.003 32.002 32.003 S 96.002 172.315 96.002 154.669 z M 64 165.336 c -5.882 0 -10.666 -4.785 -10.666 -10.668 c 0 -5.881 4.784 -10.666 10.666 -10.666 c 5.883 0 10.668 4.785 10.668 10.666 C 74.667 160.551 69.883 165.336 64 165.336 z" style="stroke: none; stroke-width: 1; stroke-dasharray: none; stroke-linecap: butt; stroke-linejoin: miter; stroke-miterlimit: 10; fill: #1b1b24; fill-rule: nonzero; opacity: 1;" transform=" matrix(1 0 0 1 0 0) " stroke-linecap="round" />
  <path d="M 149.334 208 c 0 -17.644 -14.356 -31.999 -32.003 -31.999 C 99.687 176 85.332 190.356 85.332 208 c 0 17.648 14.355 32.005 31.999 32.005 C 134.977 240.005 149.334 225.647 149.334 208 z M 117.331 218.669 c -5.881 0 -10.664 -4.787 -10.664 -10.67 c 0 -5.88 4.783 -10.664 10.664 -10.664 c 5.883 0 10.668 4.784 10.668 10.664 C 127.999 213.883 123.214 218.669 117.331 218.669 z" style="stroke: none; stroke-width: 1; stroke-dasharray: none; stroke-linecap: butt; stroke-linejoin: miter; stroke-miterlimit: 10; fill: #1b1b24; fill-rule: nonzero; opacity: 1;" transform=" matrix(1 0 0 1 0 0) " stroke-linecap="round" />
  <path d="M 138.663 154.669 c 0 17.646 14.355 32.003 32.002 32.003 s 32.002 -14.356 32.002 -32.003 s -14.355 -32.002 -32.002 -32.002 C 153.018 122.667 138.663 137.022 138.663 154.669 z M 170.665 144.002 c 5.882 0 10.666 4.785 10.666 10.666 c 0 5.882 -4.784 10.668 -10.666 10.668 c -5.882 0 -10.666 -4.785 -10.666 -10.668 C 159.998 148.788 164.784 144.002 170.665 144.002 z" style="stroke: none; stroke-width: 1; stroke-dasharray: none; stroke-linecap: butt; stroke-linejoin: miter; stroke-miterlimit: 10; fill: #1b1b24; fill-rule: nonzero; opacity: 1;" transform=" matrix(1 0 0 1 0 0) " stroke-linecap="round" />
  <path d="M 341.332 154.669 c 0 -5.875 -4.792 -10.666 -10.666 -10.666 c -5.875 0 -10.664 4.792 -10.664 10.666 c 0 5.875 4.79 10.666 10.664 10.666 C 336.539 165.335 341.332 160.543 341.332 154.669 z" style="stroke: none; stroke-width: 1; stroke-dasharray: none; stroke-linecap: butt; stroke-linejoin: miter; stroke-miterlimit: 10; fill: #1b1b24; fill-rule: nonzero; opacity: 1;" transform=" matrix(1 0 0 1 0 0) " stroke-linecap="round" />
  <path d="M 330.666 133.338 c 17.644 0 31.999 -14.356 31.999 -32.003 s -14.355 -32.003 -31.999 -32.003 c -17.646 0 -32.003 14.356 -32.003 32.003 S 313.02 133.338 330.666 133.338 z M 330.666 90.669 c 5.881 0 10.664 4.785 10.664 10.668 c 0 5.882 -4.783 10.668 -10.664 10.668 c -5.883 0 -10.668 -4.785 -10.668 -10.668 C 319.998 95.453 324.783 90.669 330.666 90.669 z" style="stroke: none; stroke-width: 1; stroke-dasharray: none; stroke-linecap: butt; stroke-linejoin: miter; stroke-miterlimit: 10; fill: #1b1b24; fill-rule: nonzero; opacity: 1;" transform=" matrix(1 0 0 1 0 0) " stroke-linecap="round" />
  <path d="M 277.332 186.671 c 17.646 0 32.002 -14.356 32.002 -32.003 s -14.355 -32.002 -32.002 -32.002 c -17.646 0 -32.002 14.356 -32.002 32.002 C 245.331 172.315 259.686 186.671 277.332 186.671 z M 277.332 144.002 c 5.882 0 10.666 4.785 10.666 10.666 c 0 5.882 -4.784 10.668 -10.666 10.668 c -5.882 0 -10.666 -4.785 -10.666 -10.668 C 266.666 148.788 271.45 144.002 277.332 144.002 z" style="stroke: none; stroke-width: 1; stroke-dasharray: none; stroke-linecap: butt; stroke-linejoin: miter; stroke-miterlimit: 10; fill: #1b1b24; fill-rule: nonzero; opacity: 1;" transform=" matrix(1 0 0 1 0 0) " stroke-linecap="round" />
  <path d="M 330.666 176 c -17.646 0 -32.003 14.355 -32.003 31.999 c 0 17.648 14.356 32.005 32.003 32.005 c 17.644 0 31.999 -14.356 31.999 -32.005 C 362.665 190.355 348.31 176 330.666 176 z M 330.666 218.669 c -5.883 0 -10.668 -4.787 -10.668 -10.67 c 0 -5.88 4.784 -10.664 10.668 -10.664 c 5.881 0 10.664 4.784 10.664 10.664 C 341.33 213.883 336.546 218.669 330.666 218.669 z" style="stroke: none; stroke-width: 1; stroke-dasharray: none; stroke-linecap: butt; stroke-linejoin: miter; stroke-miterlimit: 10; fill: #1b1b24; fill-rule: nonzero; opacity: 1;" transform=" matrix(1 0 0 1 0 0) " stroke-linecap="round" />
  <path d="M 351.997 154.669 c 0 17.646 14.356 32.003 32.003 32.003 c 17.644 0 31.999 -14.356 31.999 -32.003 s -14.355 -32.002 -31.999 -32.002 C 366.353 122.667 351.997 137.022 351.997 154.669 z M 383.999 144.002 c 5.881 0 10.664 4.785 10.664 10.666 c 0 5.882 -4.783 10.668 -10.664 10.668 c -5.883 0 -10.668 -4.785 -10.668 -10.668 C 373.332 148.788 378.116 144.002 383.999 144.002 z" style="stroke: none; stroke-width: 1; stroke-dasharray: none; stroke-linecap: butt; stroke-linejoin: miter; stroke-miterlimit: 10; fill: #1b1b24; fill-rule: nonzero; opacity: 1;" transform=" matrix(1 0 0 1 0 0) " stroke-linecap="round" />
  <path d="M 223.998 303.999 H 112.663 c -5.892 0 -10.668 4.776 -10.668 10.668 v 96 c 0 5.892 4.776 10.668 10.668 10.668 h 111.335 c 5.892 0 10.668 -4.776 10.668 -10.668 v -96 C 234.665 308.775 229.89 303.999 223.998 303.999 z M 213.33 399.999 h -90 v -74.665 h 90 V 399.999 z" style="stroke: none; stroke-width: 1; stroke-dasharray: none; stroke-linecap: butt; stroke-linejoin: miter; stroke-miterlimit: 10; fill: #1b1b24; fill-rule: nonzero; opacity: 1;" transform=" matrix(1 0 0 1 0 0) " stroke-linecap="round" />
  <path d="M 266.664 390.436 c 5.892 0 10.668 -4.776 10.668 -10.668 v -65.1 c 0 -5.892 -4.776 -10.668 -10.668 -10.668 c -5.892 0 -10.668 4.776 -10.668 10.668 v 65.1 C 255.996 385.66 260.771 390.436 266.664 390.436 z" style="stroke: none; stroke-width: 1; stroke-dasharray: none; stroke-linecap: butt; stroke-linejoin: miter; stroke-miterlimit: 10; fill: #1b1b24; fill-rule: nonzero; opacity: 1;" transform=" matrix(1 0 0 1 0 0) " stroke-linecap="round" />
  <path d="M 266.667 399.746 c -5.892 0 -10.668 4.776 -10.668 10.668 v 0.254 c 0 5.892 4.776 10.668 10.668 10.668 c 5.892 0 10.668 -4.776 10.668 -10.668 v -0.254 C 277.335 404.521 272.56 399.746 266.667 399.746 z" style="stroke: none; stroke-width: 1; stroke-dasharray: none; stroke-linecap: butt; stroke-linejoin: miter; stroke-miterlimit: 10; fill: #1b1b24; fill-rule: nonzero; opacity: 1;" transform=" matrix(1 0 0 1 0 0) " stroke-linecap="round" />
  <path d="M 309.331 303.999 c -5.891 0 -10.668 4.776 -10.668 10.668 v 96 c 0 5.892 4.777 10.668 10.668 10.668 s 10.668 -4.776 10.668 -10.668 v -96 C 319.998 308.775 315.221 303.999 309.331 303.999 z" style="stroke: none; stroke-width: 1; stroke-dasharray: none; stroke-linecap: butt; stroke-linejoin: miter; stroke-miterlimit: 10; fill: #1b1b24; fill-rule: nonzero; opacity: 1;" transform=" matrix(1 0 0 1 0 0) " stroke-linecap="round" />
  <path d="M 352 304.001 c -5.891 0 -10.668 4.776 -10.668 10.668 v 0.256 c 0 5.892 4.777 10.668 10.668 10.668 c 5.892 0 10.668 -4.776 10.668 -10.668 v -0.256 C 362.667 308.777 357.892 304.001 352 304.001 z" style="stroke: none; stroke-width: 1; stroke-dasharray: none; stroke-linecap: butt; stroke-linejoin: miter; stroke-miterlimit: 10; fill: #1b1b24; fill-rule: nonzero; opacity: 1;" transform=" matrix(1 0 0 1 0 0) " stroke-linecap="round" />
  <path d="M 351.996 334.902 c -5.892 0 -10.668 4.776 -10.668 10.668 v 65.1 c 0 5.892 4.776 10.668 10.668 10.668 s 10.668 -4.776 10.668 -10.668 v -65.1 C 362.663 339.678 357.887 334.902 351.996 334.902 z" style="stroke: none; stroke-width: 1; stroke-dasharray: none; stroke-linecap: butt; stroke-linejoin: miter; stroke-miterlimit: 10; fill: #1b1b24; fill-rule: nonzero; opacity: 1;" transform=" matrix(1 0 0 1 0 0) " stroke-linecap="round" />
</g>
  <g transform="translate(128.54 52.57)">
   <text font-family="Amerika Sans" font-size="40" font-weight="normal" style="stroke: none; stroke-width: 1; stroke-dasharray: none; stroke-linecap: butt; stroke-linejoin: miter; stroke-miterlimit: 10; fill: #ffffff; fill-rule: nonzero; opacity: 1;" ><tspan x="-48.88" y="8.98" style="stroke: none; stroke-width: 0; stroke-dasharray: none; stroke-linecap: butt; stroke-linejoin: miter; stroke-miterlimit: 4; fill: #ffffff; fill-rule: ; opacity: 1;">V</tspan><tspan x="-19.99" y="8.98" style="stroke: none; stroke-width: 0; stroke-dasharray: none; stroke-linecap: butt; stroke-linejoin: miter; stroke-miterlimit: 4; fill: #ffffff; fill-rule: ; opacity: 1;">i</tspan><tspan x="-8.88" y="8.98" style="stroke: none; stroke-width: 0; stroke-dasharray: none; stroke-linecap: butt; stroke-linejoin: miter; stroke-miterlimit: 4; fill: #ffffff; fill-rule: ; opacity: 1;">d</tspan><tspan x="11.12" y="8.98" style="stroke: none; stroke-width: 0; stroke-dasharray: none; stroke-linecap: butt; stroke-linejoin: miter; stroke-miterlimit: 4; fill: #ffffff; fill-rule: ; opacity: 1;">e</tspan><tspan x="28.88" y="8.98" style="stroke: none; stroke-width: 0; stroke-dasharray: none; stroke-linecap: butt; stroke-linejoin: miter; stroke-miterlimit: 4; fill: #ffffff; fill-rule: ; opacity: 1;">o</tspan></text>
 </g>
  <g transform="translate(211.1 52.56)">
   <text font-family="Amerika Sans" font-size="40" font-weight="normal" style="stroke: none; stroke-width: 1; stroke-dasharray: none; stroke-linecap: butt; stroke-linejoin: miter; stroke-miterlimit: 10; fill: #f50303; fill-rule: nonzero; opacity: 1;" ><tspan x="-34.44" y="8.98" style="stroke: none; stroke-width: 0; stroke-dasharray: none; stroke-linecap: butt; stroke-linejoin: miter; stroke-miterlimit: 4; fill: #f50303; fill-rule: ; opacity: 1;">H</tspan><tspan x="-5.56" y="8.98" style="stroke: none; stroke-width: 0; stroke-dasharray: none; stroke-linecap: butt; stroke-linejoin: miter; stroke-miterlimit: 4; fill: #f50303; fill-rule: ; opacity: 1;">u</tspan><tspan x="14.44" y="8.98" style="stroke: none; stroke-width: 0; stroke-dasharray: none; stroke-linecap: butt; stroke-linejoin: miter; stroke-miterlimit: 4; fill: #f50303; fill-rule: ; opacity: 1;">b</tspan></text>
 </g>
</svg>